<svg width="1280" height="720" xmlns="http://www.w3.org/2000/svg" xmlns:xlink="http://www.w3.org/1999/xlink" overflow="hidden"><defs><filter id="fx0" x="-10%" y="-10%" width="120%" height="120%" filterUnits="userSpaceOnUse" primitiveUnits="userSpaceOnUse"><feComponentTransfer color-interpolation-filters="sRGB"><feFuncR type="discrete" tableValues="0 0"/><feFuncG type="discrete" tableValues="0 0"/><feFuncB type="discrete" tableValues="0 0"/><feFuncA type="linear" slope="0.4" intercept="0"/></feComponentTransfer><feGaussianBlur stdDeviation="1.77778 1.77778"/></filter><filter id="fx1" x="-10%" y="-10%" width="120%" height="120%" filterUnits="userSpaceOnUse" primitiveUnits="userSpaceOnUse"><feComponentTransfer color-interpolation-filters="sRGB"><feFuncR type="discrete" tableValues="0 0"/><feFuncG type="discrete" tableValues="0 0"/><feFuncB type="discrete" tableValues="0 0"/><feFuncA type="linear" slope="0.4" intercept="0"/></feComponentTransfer><feGaussianBlur stdDeviation="1.77778 1.77778"/></filter><filter id="fx2" x="-10%" y="-10%" width="120%" height="120%" filterUnits="userSpaceOnUse" primitiveUnits="userSpaceOnUse"><feComponentTransfer color-interpolation-filters="sRGB"><feFuncR type="discrete" tableValues="0 0"/><feFuncG type="discrete" tableValues="0 0"/><feFuncB type="discrete" tableValues="0 0"/><feFuncA type="linear" slope="0.4" intercept="0"/></feComponentTransfer><feGaussianBlur stdDeviation="1.77778 1.77778"/></filter><filter id="fx3" x="-10%" y="-10%" width="120%" height="120%" filterUnits="userSpaceOnUse" primitiveUnits="userSpaceOnUse"><feComponentTransfer color-interpolation-filters="sRGB"><feFuncR type="discrete" tableValues="0 0"/><feFuncG type="discrete" tableValues="0 0"/><feFuncB type="discrete" tableValues="0 0"/><feFuncA type="linear" slope="0.4" intercept="0"/></feComponentTransfer><feGaussianBlur stdDeviation="1.77778 1.77778"/></filter><filter id="fx4" x="-10%" y="-10%" width="120%" height="120%" filterUnits="userSpaceOnUse" primitiveUnits="userSpaceOnUse"><feComponentTransfer color-interpolation-filters="sRGB"><feFuncR type="discrete" tableValues="0 0"/><feFuncG type="discrete" tableValues="0 0"/><feFuncB type="discrete" tableValues="0 0"/><feFuncA type="linear" slope="0.4" intercept="0"/></feComponentTransfer><feGaussianBlur stdDeviation="1.77778 1.77778"/></filter><filter id="fx5" x="-10%" y="-10%" width="120%" height="120%" filterUnits="userSpaceOnUse" primitiveUnits="userSpaceOnUse"><feComponentTransfer color-interpolation-filters="sRGB"><feFuncR type="discrete" tableValues="0 0"/><feFuncG type="discrete" tableValues="0 0"/><feFuncB type="discrete" tableValues="0 0"/><feFuncA type="linear" slope="0.4" intercept="0"/></feComponentTransfer><feGaussianBlur stdDeviation="1.77778 1.77778"/></filter><filter id="fx6" x="-10%" y="-10%" width="120%" height="120%" filterUnits="userSpaceOnUse" primitiveUnits="userSpaceOnUse"><feComponentTransfer color-interpolation-filters="sRGB"><feFuncR type="discrete" tableValues="0 0"/><feFuncG type="discrete" tableValues="0 0"/><feFuncB type="discrete" tableValues="0 0"/><feFuncA type="linear" slope="0.4" intercept="0"/></feComponentTransfer><feGaussianBlur stdDeviation="1.77778 1.77778"/></filter><filter id="fx7" x="-10%" y="-10%" width="120%" height="120%" filterUnits="userSpaceOnUse" primitiveUnits="userSpaceOnUse"><feComponentTransfer color-interpolation-filters="sRGB"><feFuncR type="discrete" tableValues="0 0"/><feFuncG type="discrete" tableValues="0 0"/><feFuncB type="discrete" tableValues="0 0"/><feFuncA type="linear" slope="0.4" intercept="0"/></feComponentTransfer><feGaussianBlur stdDeviation="1.77778 1.77778"/></filter><filter id="fx8" x="-10%" y="-10%" width="120%" height="120%" filterUnits="userSpaceOnUse" primitiveUnits="userSpaceOnUse"><feComponentTransfer color-interpolation-filters="sRGB"><feFuncR type="discrete" tableValues="0 0"/><feFuncG type="discrete" tableValues="0 0"/><feFuncB type="discrete" tableValues="0 0"/><feFuncA type="linear" slope="0.4" intercept="0"/></feComponentTransfer><feGaussianBlur stdDeviation="1.77778 1.77778"/></filter><filter id="fx9" x="-10%" y="-10%" width="120%" height="120%" filterUnits="userSpaceOnUse" primitiveUnits="userSpaceOnUse"><feComponentTransfer color-interpolation-filters="sRGB"><feFuncR type="discrete" tableValues="0 0"/><feFuncG type="discrete" tableValues="0 0"/><feFuncB type="discrete" tableValues="0 0"/><feFuncA type="linear" slope="0.4" intercept="0"/></feComponentTransfer><feGaussianBlur stdDeviation="1.77778 1.77778"/></filter><filter id="fx10" x="-10%" y="-10%" width="120%" height="120%" filterUnits="userSpaceOnUse" primitiveUnits="userSpaceOnUse"><feComponentTransfer color-interpolation-filters="sRGB"><feFuncR type="discrete" tableValues="0 0"/><feFuncG type="discrete" tableValues="0 0"/><feFuncB type="discrete" tableValues="0 0"/><feFuncA type="linear" slope="0.4" intercept="0"/></feComponentTransfer><feGaussianBlur stdDeviation="1.77778 1.77778"/></filter><filter id="fx11" x="-10%" y="-10%" width="120%" height="120%" filterUnits="userSpaceOnUse" primitiveUnits="userSpaceOnUse"><feComponentTransfer color-interpolation-filters="sRGB"><feFuncR type="discrete" tableValues="0 0"/><feFuncG type="discrete" tableValues="0 0"/><feFuncB type="discrete" tableValues="0 0"/><feFuncA type="linear" slope="0.4" intercept="0"/></feComponentTransfer><feGaussianBlur stdDeviation="1.77778 1.77778"/></filter><filter id="fx12" x="-10%" y="-10%" width="120%" height="120%" filterUnits="userSpaceOnUse" primitiveUnits="userSpaceOnUse"><feComponentTransfer color-interpolation-filters="sRGB"><feFuncR type="discrete" tableValues="0 0"/><feFuncG type="discrete" tableValues="0 0"/><feFuncB type="discrete" tableValues="0 0"/><feFuncA type="linear" slope="0.4" intercept="0"/></feComponentTransfer><feGaussianBlur stdDeviation="1.77778 1.77778"/></filter><filter id="fx13" x="-10%" y="-10%" width="120%" height="120%" filterUnits="userSpaceOnUse" primitiveUnits="userSpaceOnUse"><feComponentTransfer color-interpolation-filters="sRGB"><feFuncR type="discrete" tableValues="0 0"/><feFuncG type="discrete" tableValues="0 0"/><feFuncB type="discrete" tableValues="0 0"/><feFuncA type="linear" slope="0.4" intercept="0"/></feComponentTransfer><feGaussianBlur stdDeviation="1.77778 1.77778"/></filter><radialGradient cx="0.5" cy="6858000" r="13988460" fx="0" fy="6858000" gradientUnits="userSpaceOnUse" spreadMethod="pad" id="fill14" gradientTransform="scale(0.000104987 0.000104987)"><stop offset="0" stop-color="#F6F8FC"/><stop offset="0.74" stop-color="#DCB4CE"/><stop offset="0.83" stop-color="#DCB4CE"/><stop offset="1" stop-color="#FF7C80"/></radialGradient><radialGradient cx="2047875" cy="6429376" r="6747641" fx="2047875" fy="6429375" gradientUnits="userSpaceOnUse" spreadMethod="pad" id="fill15" gradientTransform="matrix(0.000104987 0 0 0.000104987 10 34)"><stop offset="0" stop-color="#F6F8FC"/><stop offset="0.74" stop-color="#DCB4CE"/><stop offset="0.83" stop-color="#DCB4CE"/><stop offset="1" stop-color="#FF7C80"/></radialGradient><radialGradient cx="2047875" cy="6429376" r="6747641" fx="2047875" fy="6429375" gradientUnits="userSpaceOnUse" spreadMethod="pad" id="fill16" gradientTransform="matrix(0.000104987 0 0 0.000104987 10 34)"><stop offset="0" stop-color="#F6F8FC"/><stop offset="0.74" stop-color="#DCB4CE"/><stop offset="0.83" stop-color="#DCB4CE"/><stop offset="1" stop-color="#FF7C80"/></radialGradient></defs><g><rect x="0" y="0" width="1280" height="720" fill="url(#fill14)"/><g filter="url(#fx0)" transform="translate(236 96)"><g><path d="M7.17157 23.8293C7.17157 14.6295 14.6295 7.17157 23.8293 7.17157L248.514 7.17157C257.714 7.17157 265.172 14.6295 265.172 23.8293L265.172 101.514C265.172 110.714 257.714 118.172 248.514 118.172L23.8293 118.172C14.6295 118.172 7.17157 110.714 7.17157 101.514Z" fill="#BFBFBF" fill-rule="evenodd"/></g></g><path d="M246 122.658C246 113.458 253.458 106 262.658 106L487.342 106C496.542 106 504 113.458 504 122.658L504 200.342C504 209.542 496.542 217 487.342 217L262.658 217C253.458 217 246 209.542 246 200.342Z" fill="#BFBFBF" fill-rule="evenodd"/><g filter="url(#fx1)" transform="translate(242 102)"><g><path d="M6.82843 23.4862C6.82843 14.2864 14.2863 6.82843 23.4861 6.82843L248.171 6.82843C257.371 6.82843 264.828 14.2864 264.828 23.4862L264.828 101.171C264.828 110.371 257.371 117.828 248.171 117.828L23.4861 117.828C14.2863 117.828 6.82843 110.371 6.82843 101.171Z" fill="#FFFFFF" fill-rule="evenodd"/></g></g><path d="M246 122.658C246 113.458 253.458 106 262.658 106L487.342 106C496.542 106 504 113.458 504 122.658L504 200.342C504 209.542 496.542 217 487.342 217L262.658 217C253.458 217 246 209.542 246 200.342Z" fill="#FFFFFF" fill-rule="evenodd"/><g filter="url(#fx2)" transform="matrix(1 0 0 1 0 24)"><g><path d="M7.17157 39.4363C7.17157 21.617 21.617 7.17157 39.4364 7.17157L189.907 7.17157C207.726 7.17157 222.172 21.617 222.172 39.4363L222.172 649.907C222.172 667.726 207.726 682.172 189.907 682.172L39.4364 682.172C21.617 682.172 7.17157 667.726 7.17157 649.907Z" fill="#FF0000" fill-rule="evenodd"/></g></g><path d="M10 66.2648C10 48.4454 24.4454 34 42.2648 34L192.735 34C210.555 34 225 48.4454 225 66.2648L225 676.735C225 694.555 210.555 709 192.735 709L42.2648 709C24.4454 709 10 694.555 10 676.735Z" fill="url(#fill15)" fill-rule="evenodd"/><g filter="url(#fx3)" transform="translate(6 30)"><g><path d="M6.82843 39.0932C6.82843 21.2739 21.2739 6.82843 39.0932 6.82843L189.564 6.82843C207.383 6.82843 221.828 21.2739 221.828 39.0932L221.828 649.564C221.828 667.383 207.383 681.828 189.564 681.828L39.0932 681.828C21.2739 681.828 6.82843 667.383 6.82843 649.564Z" fill="#FF0000" fill-rule="evenodd"/></g></g><path d="M10 66.2648C10 48.4454 24.4454 34 42.2648 34L192.735 34C210.555 34 225 48.4454 225 66.2648L225 676.735C225 694.555 210.555 709 192.735 709L42.2648 709C24.4454 709 10 694.555 10 676.735Z" fill="url(#fill16)" fill-rule="evenodd"/><g filter="url(#fx4)" transform="translate(236 230)"><g><path d="M7.17157 25.7804C7.17157 15.503 15.503 7.17157 25.7804 7.17157L246.563 7.17157C256.84 7.17157 265.172 15.503 265.172 25.7804L265.172 112.563C265.172 122.84 256.84 131.172 246.563 131.172L25.7804 131.172C15.503 131.172 7.17157 122.84 7.17157 112.563Z" fill="#BFBFBF" fill-rule="evenodd"/></g></g><path d="M246 258.609C246 248.331 254.331 240 264.609 240L485.391 240C495.669 240 504 248.331 504 258.609L504 345.391C504 355.669 495.669 364 485.391 364L264.609 364C254.331 364 246 355.669 246 345.391Z" fill="#BFBFBF" fill-rule="evenodd"/><g filter="url(#fx5)" transform="translate(242 236)"><g><path d="M6.82843 25.4372C6.82843 15.1599 15.1599 6.82843 25.4372 6.82843L246.22 6.82843C256.497 6.82843 264.828 15.1599 264.828 25.4372L264.828 112.22C264.828 122.497 256.497 130.828 246.22 130.828L25.4372 130.828C15.1599 130.828 6.82843 122.497 6.82843 112.22Z" fill="#FFFFFF" fill-rule="evenodd"/></g></g><path d="M246 258.609C246 248.331 254.331 240 264.609 240L485.391 240C495.669 240 504 248.331 504 258.609L504 345.391C504 355.669 495.669 364 485.391 364L264.609 364C254.331 364 246 355.669 246 345.391Z" fill="#FFFFFF" fill-rule="evenodd"/><g filter="url(#fx6)" transform="translate(228 377)"><g><path d="M7.17157 29.8028C7.17157 17.3039 17.3039 7.17157 29.8028 7.17157L250.54 7.17157C263.039 7.17157 273.172 17.3039 273.172 29.8028L273.172 306.54C273.172 319.039 263.039 329.172 250.54 329.172L29.8028 329.172C17.3039 329.172 7.17157 319.039 7.17157 306.54Z" fill="#BFBFBF" fill-rule="evenodd"/></g></g><path d="M238 409.631C238 397.132 248.132 387 260.631 387L481.369 387C493.868 387 504 397.132 504 409.631L504 686.369C504 698.868 493.868 709 481.369 709L260.631 709C248.132 709 238 698.868 238 686.369Z" fill="#BFBFBF" fill-rule="evenodd"/><g filter="url(#fx7)" transform="translate(234 383)"><g><path d="M6.82843 23.089C6.82843 14.1085 14.1085 6.82843 23.089 6.82843L256.568 6.82843C265.548 6.82843 272.828 14.1085 272.828 23.089L272.828 312.568C272.828 321.548 265.548 328.828 256.568 328.828L23.089 328.828C14.1085 328.828 6.82843 321.548 6.82843 312.568Z" fill="#FFFFFF" fill-rule="evenodd"/></g></g><path d="M238 403.261C238 394.28 245.28 387 254.261 387L487.739 387C496.72 387 504 394.28 504 403.261L504 692.739C504 701.72 496.72 709 487.739 709L254.261 709C245.28 709 238 701.72 238 692.739Z" fill="#FFFFFF" fill-rule="evenodd"/><g filter="url(#fx8)" transform="translate(519 387)"><g><path d="M7.17157 33.7167C7.17157 19.0562 19.0562 7.17157 33.7167 7.17157L422.626 7.17157C437.287 7.17157 449.172 19.0562 449.172 33.7167L449.172 292.626C449.172 307.287 437.287 319.172 422.626 319.172L33.7167 319.172C19.0562 319.172 7.17157 307.287 7.17157 292.626Z" fill="#BFBFBF" fill-rule="evenodd"/></g></g><path d="M529 423.545C529 408.885 540.885 397 555.545 397L944.455 397C959.115 397 971 408.885 971 423.545L971 682.455C971 697.115 959.115 709 944.455 709L555.545 709C540.885 709 529 697.115 529 682.455Z" fill="#BFBFBF" fill-rule="evenodd"/><g filter="url(#fx9)" transform="translate(525 393)"><g><path d="M6.82843 25.9011C6.82843 15.3675 15.3675 6.82843 25.901 6.82843L429.756 6.82843C440.289 6.82843 448.828 15.3675 448.828 25.9011L448.828 299.756C448.828 310.289 440.289 318.828 429.756 318.828L25.901 318.828C15.3675 318.828 6.82843 310.289 6.82843 299.756Z" fill="#FFFFFF" fill-rule="evenodd"/></g></g><path d="M529 416.073C529 405.539 537.539 397 548.073 397L951.927 397C962.461 397 971 405.539 971 416.073L971 689.927C971 700.461 962.461 709 951.927 709L548.073 709C537.539 709 529 700.461 529 689.927Z" fill="#FFFFFF" fill-rule="evenodd"/><g filter="url(#fx10)" transform="translate(519 96)"><g><path d="M7.17157 31.0789C7.17157 17.8753 17.8753 7.17157 31.0789 7.17157L425.264 7.17157C438.468 7.17157 449.172 17.8753 449.172 31.0789L449.172 264.264C449.172 277.468 438.468 288.172 425.264 288.172L31.0789 288.172C17.8753 288.172 7.17157 277.468 7.17157 264.264Z" fill="#BFBFBF" fill-rule="evenodd"/></g></g><path d="M529 129.907C529 116.704 539.704 106 552.907 106L947.093 106C960.296 106 971 116.704 971 129.907L971 363.093C971 376.296 960.296 387 947.093 387L552.907 387C539.704 387 529 376.296 529 363.093Z" fill="#BFBFBF" fill-rule="evenodd"/><g filter="url(#fx11)" transform="translate(525 102)"><g><path d="M6.82843 24.0057C6.82843 14.519 14.519 6.82843 24.0057 6.82843L431.651 6.82843C441.138 6.82843 448.828 14.519 448.828 24.0057L448.828 270.651C448.828 280.138 441.138 287.828 431.651 287.828L24.0057 287.828C14.519 287.828 6.82843 280.138 6.82843 270.651Z" fill="#FFFFFF" fill-rule="evenodd"/></g></g><path d="M529 123.177C529 113.691 536.691 106 546.177 106L953.823 106C963.309 106 971 113.691 971 123.177L971 369.823C971 379.309 963.309 387 953.823 387L546.177 387C536.691 387 529 379.309 529 369.823Z" fill="#FFFFFF" fill-rule="evenodd"/><g filter="url(#fx12)" transform="translate(974 96)"><g><path d="M7.17157 31.9299C7.17157 18.2563 18.2563 7.17157 31.93 7.17157L273.413 7.17157C287.087 7.17157 298.172 18.2563 298.172 31.9299L298.172 585.413C298.172 599.087 287.087 610.172 273.413 610.172L31.93 610.172C18.2563 610.172 7.17157 599.087 7.17157 585.413Z" fill="#BFBFBF" fill-rule="evenodd"/></g></g><path d="M984 130.758C984 117.085 995.085 106 1008.76 106L1250.24 106C1263.92 106 1275 117.085 1275 130.758L1275 684.242C1275 697.915 1263.92 709 1250.24 709L1008.76 709C995.085 709 984 697.915 984 684.242Z" fill="#BFBFBF" fill-rule="evenodd"/><g filter="url(#fx13)" transform="translate(980 102)"><g><path d="M6.82843 24.6171C6.82843 14.7927 14.7927 6.82843 24.6171 6.82843L280.04 6.82843C289.864 6.82843 297.828 14.7927 297.828 24.6171L297.828 592.04C297.828 601.864 289.864 609.828 280.04 609.828L24.6171 609.828C14.7927 609.828 6.82843 601.864 6.82843 592.04Z" fill="#FFFFFF" fill-rule="evenodd"/></g></g><path d="M984 123.789C984 113.964 991.964 106 1001.79 106L1257.21 106C1267.04 106 1275 113.964 1275 123.789L1275 691.211C1275 701.036 1267.04 709 1257.21 709L1001.79 709C991.964 709 984 701.036 984 691.211Z" fill="#FFFFFF" fill-rule="evenodd"/></g></svg>