<svg width="1280" height="720" xmlns="http://www.w3.org/2000/svg" xmlns:xlink="http://www.w3.org/1999/xlink" overflow="hidden"><defs><filter id="fx0" x="-10%" y="-10%" width="120%" height="120%" filterUnits="userSpaceOnUse" primitiveUnits="userSpaceOnUse"><feComponentTransfer color-interpolation-filters="sRGB"><feFuncR type="discrete" tableValues="0 0"/><feFuncG type="discrete" tableValues="0 0"/><feFuncB type="discrete" tableValues="0 0"/><feFuncA type="linear" slope="0.4" intercept="0"/></feComponentTransfer><feGaussianBlur stdDeviation="1.77778 1.77778"/></filter><filter id="fx1" x="-10%" y="-10%" width="120%" height="120%" filterUnits="userSpaceOnUse" primitiveUnits="userSpaceOnUse"><feComponentTransfer color-interpolation-filters="sRGB"><feFuncR type="discrete" tableValues="0 0"/><feFuncG type="discrete" tableValues="0 0"/><feFuncB type="discrete" tableValues="0 0"/><feFuncA type="linear" slope="0.4" intercept="0"/></feComponentTransfer><feGaussianBlur stdDeviation="1.77778 1.77778"/></filter><filter id="fx2" x="-10%" y="-10%" width="120%" height="120%" filterUnits="userSpaceOnUse" primitiveUnits="userSpaceOnUse"><feComponentTransfer color-interpolation-filters="sRGB"><feFuncR type="discrete" tableValues="0 0"/><feFuncG type="discrete" tableValues="0 0"/><feFuncB type="discrete" tableValues="0 0"/><feFuncA type="linear" slope="0.4" intercept="0"/></feComponentTransfer><feGaussianBlur stdDeviation="1.77778 1.77778"/></filter><filter id="fx3" x="-10%" y="-10%" width="120%" height="120%" filterUnits="userSpaceOnUse" primitiveUnits="userSpaceOnUse"><feComponentTransfer color-interpolation-filters="sRGB"><feFuncR type="discrete" tableValues="0 0"/><feFuncG type="discrete" tableValues="0 0"/><feFuncB type="discrete" tableValues="0 0"/><feFuncA type="linear" slope="0.4" intercept="0"/></feComponentTransfer><feGaussianBlur stdDeviation="1.77778 1.77778"/></filter><filter id="fx4" x="-10%" y="-10%" width="120%" height="120%" filterUnits="userSpaceOnUse" primitiveUnits="userSpaceOnUse"><feComponentTransfer color-interpolation-filters="sRGB"><feFuncR type="discrete" tableValues="0 0"/><feFuncG type="discrete" tableValues="0 0"/><feFuncB type="discrete" tableValues="0 0"/><feFuncA type="linear" slope="0.4" intercept="0"/></feComponentTransfer><feGaussianBlur stdDeviation="1.77778 1.77778"/></filter><filter id="fx5" x="-10%" y="-10%" width="120%" height="120%" filterUnits="userSpaceOnUse" primitiveUnits="userSpaceOnUse"><feComponentTransfer color-interpolation-filters="sRGB"><feFuncR type="discrete" tableValues="0 0"/><feFuncG type="discrete" tableValues="0 0"/><feFuncB type="discrete" tableValues="0 0"/><feFuncA type="linear" slope="0.4" intercept="0"/></feComponentTransfer><feGaussianBlur stdDeviation="1.77778 1.77778"/></filter><filter id="fx6" x="-10%" y="-10%" width="120%" height="120%" filterUnits="userSpaceOnUse" primitiveUnits="userSpaceOnUse"><feComponentTransfer color-interpolation-filters="sRGB"><feFuncR type="discrete" tableValues="0 0"/><feFuncG type="discrete" tableValues="0 0"/><feFuncB type="discrete" tableValues="0 0"/><feFuncA type="linear" slope="0.4" intercept="0"/></feComponentTransfer><feGaussianBlur stdDeviation="1.77778 1.77778"/></filter><filter id="fx7" x="-10%" y="-10%" width="120%" height="120%" filterUnits="userSpaceOnUse" primitiveUnits="userSpaceOnUse"><feComponentTransfer color-interpolation-filters="sRGB"><feFuncR type="discrete" tableValues="0 0"/><feFuncG type="discrete" tableValues="0 0"/><feFuncB type="discrete" tableValues="0 0"/><feFuncA type="linear" slope="0.4" intercept="0"/></feComponentTransfer><feGaussianBlur stdDeviation="1.77778 1.77778"/></filter><filter id="fx8" x="-10%" y="-10%" width="120%" height="120%" filterUnits="userSpaceOnUse" primitiveUnits="userSpaceOnUse"><feComponentTransfer color-interpolation-filters="sRGB"><feFuncR type="discrete" tableValues="0 0"/><feFuncG type="discrete" tableValues="0 0"/><feFuncB type="discrete" tableValues="0 0"/><feFuncA type="linear" slope="0.4" intercept="0"/></feComponentTransfer><feGaussianBlur stdDeviation="1.77778 1.77778"/></filter><filter id="fx9" x="-10%" y="-10%" width="120%" height="120%" filterUnits="userSpaceOnUse" primitiveUnits="userSpaceOnUse"><feComponentTransfer color-interpolation-filters="sRGB"><feFuncR type="discrete" tableValues="0 0"/><feFuncG type="discrete" tableValues="0 0"/><feFuncB type="discrete" tableValues="0 0"/><feFuncA type="linear" slope="0.4" intercept="0"/></feComponentTransfer><feGaussianBlur stdDeviation="1.77778 1.77778"/></filter><filter id="fx10" x="-10%" y="-10%" width="120%" height="120%" filterUnits="userSpaceOnUse" primitiveUnits="userSpaceOnUse"><feComponentTransfer color-interpolation-filters="sRGB"><feFuncR type="discrete" tableValues="0 0"/><feFuncG type="discrete" tableValues="0 0"/><feFuncB type="discrete" tableValues="0 0"/><feFuncA type="linear" slope="0.4" intercept="0"/></feComponentTransfer><feGaussianBlur stdDeviation="1.77778 1.77778"/></filter><filter id="fx11" x="-10%" y="-10%" width="120%" height="120%" filterUnits="userSpaceOnUse" primitiveUnits="userSpaceOnUse"><feComponentTransfer color-interpolation-filters="sRGB"><feFuncR type="discrete" tableValues="0 0"/><feFuncG type="discrete" tableValues="0 0"/><feFuncB type="discrete" tableValues="0 0"/><feFuncA type="linear" slope="0.4" intercept="0"/></feComponentTransfer><feGaussianBlur stdDeviation="1.77778 1.77778"/></filter><filter id="fx12" x="-10%" y="-10%" width="120%" height="120%" filterUnits="userSpaceOnUse" primitiveUnits="userSpaceOnUse"><feComponentTransfer color-interpolation-filters="sRGB"><feFuncR type="discrete" tableValues="0 0"/><feFuncG type="discrete" tableValues="0 0"/><feFuncB type="discrete" tableValues="0 0"/><feFuncA type="linear" slope="0.4" intercept="0"/></feComponentTransfer><feGaussianBlur stdDeviation="1.77778 1.77778"/></filter><filter id="fx13" x="-10%" y="-10%" width="120%" height="120%" filterUnits="userSpaceOnUse" primitiveUnits="userSpaceOnUse"><feComponentTransfer color-interpolation-filters="sRGB"><feFuncR type="discrete" tableValues="0 0"/><feFuncG type="discrete" tableValues="0 0"/><feFuncB type="discrete" tableValues="0 0"/><feFuncA type="linear" slope="0.4" intercept="0"/></feComponentTransfer><feGaussianBlur stdDeviation="1.77778 1.77778"/></filter><filter id="fx14" x="-10%" y="-10%" width="120%" height="120%" filterUnits="userSpaceOnUse" primitiveUnits="userSpaceOnUse"><feComponentTransfer color-interpolation-filters="sRGB"><feFuncR type="discrete" tableValues="0 0"/><feFuncG type="discrete" tableValues="0 0"/><feFuncB type="discrete" tableValues="0 0"/><feFuncA type="linear" slope="0.4" intercept="0"/></feComponentTransfer><feGaussianBlur stdDeviation="1.77778 1.77778"/></filter><filter id="fx15" x="-10%" y="-10%" width="120%" height="120%" filterUnits="userSpaceOnUse" primitiveUnits="userSpaceOnUse"><feComponentTransfer color-interpolation-filters="sRGB"><feFuncR type="discrete" tableValues="0 0"/><feFuncG type="discrete" tableValues="0 0"/><feFuncB type="discrete" tableValues="0 0"/><feFuncA type="linear" slope="0.4" intercept="0"/></feComponentTransfer><feGaussianBlur stdDeviation="1.77778 1.77778"/></filter><filter id="fx16" x="-10%" y="-10%" width="120%" height="120%" filterUnits="userSpaceOnUse" primitiveUnits="userSpaceOnUse"><feComponentTransfer color-interpolation-filters="sRGB"><feFuncR type="discrete" tableValues="0 0"/><feFuncG type="discrete" tableValues="0 0"/><feFuncB type="discrete" tableValues="0 0"/><feFuncA type="linear" slope="0.4" intercept="0"/></feComponentTransfer><feGaussianBlur stdDeviation="1.77778 1.77778"/></filter><filter id="fx17" x="-10%" y="-10%" width="120%" height="120%" filterUnits="userSpaceOnUse" primitiveUnits="userSpaceOnUse"><feComponentTransfer color-interpolation-filters="sRGB"><feFuncR type="discrete" tableValues="0 0"/><feFuncG type="discrete" tableValues="0 0"/><feFuncB type="discrete" tableValues="0 0"/><feFuncA type="linear" slope="0.4" intercept="0"/></feComponentTransfer><feGaussianBlur stdDeviation="1.77778 1.77778"/></filter><radialGradient cx="0.5" cy="6858000" r="13988460" fx="0" fy="6858000" gradientUnits="userSpaceOnUse" spreadMethod="pad" id="fill18" gradientTransform="scale(0.000104987 0.000104987)"><stop offset="0" stop-color="#F6F8FC"/><stop offset="0.74" stop-color="#DCB4CE"/><stop offset="0.83" stop-color="#DCB4CE"/><stop offset="1" stop-color="#FF7C80"/></radialGradient><radialGradient cx="11953875" cy="914400" r="11988797" gradientUnits="userSpaceOnUse" spreadMethod="pad" id="fill19" gradientTransform="matrix(0.000104987 0 0 0.000104987 11 10)"><stop offset="0" stop-color="#F6F8FC"/><stop offset="0.74" stop-color="#DCB4CE"/><stop offset="0.83" stop-color="#DCB4CE"/><stop offset="1" stop-color="#FF7C80"/></radialGradient><radialGradient cx="11953875" cy="914400" r="11988797" gradientUnits="userSpaceOnUse" spreadMethod="pad" id="fill20" gradientTransform="matrix(0.000104987 0 0 0.000104987 11 10)"><stop offset="0" stop-color="#F6F8FC"/><stop offset="0.74" stop-color="#DCB4CE"/><stop offset="0.83" stop-color="#DCB4CE"/><stop offset="1" stop-color="#FF7C80"/></radialGradient></defs><g><rect x="0" y="0" width="1280" height="720" fill="url(#fill18)"/><g filter="url(#fx0)" transform="translate(1 124)"><g><path d="M7.17157 23.8292C7.17157 14.6295 14.6295 7.17157 23.8292 7.17157L220.514 7.17157C229.714 7.17157 237.172 14.6295 237.172 23.8292L237.172 101.514C237.172 110.714 229.714 118.172 220.514 118.172L23.8292 118.172C14.6295 118.172 7.17157 110.714 7.17157 101.514Z" fill="#BFBFBF" fill-rule="evenodd"/></g></g><path d="M11 150.658C11 141.458 18.4579 134 27.6576 134L224.342 134C233.542 134 241 141.458 241 150.658L241 228.342C241 237.542 233.542 245 224.342 245L27.6576 245C18.4579 245 11 237.542 11 228.342Z" fill="#BFBFBF" fill-rule="evenodd"/><g filter="url(#fx1)" transform="translate(7 130)"><g><path d="M6.82843 23.4861C6.82843 14.2863 14.2863 6.82843 23.4861 6.82843L220.171 6.82843C229.371 6.82843 236.828 14.2863 236.828 23.4861L236.828 101.171C236.828 110.371 229.371 117.828 220.171 117.828L23.4861 117.828C14.2863 117.828 6.82843 110.371 6.82843 101.171Z" fill="#FFFFFF" fill-rule="evenodd"/></g></g><path d="M11 150.658C11 141.458 18.4579 134 27.6576 134L224.342 134C233.542 134 241 141.458 241 150.658L241 228.342C241 237.542 233.542 245 224.342 245L27.6576 245C18.4579 245 11 237.542 11 228.342Z" fill="#FFFFFF" fill-rule="evenodd"/><g filter="url(#fx2)" transform="translate(1 0)"><g><path d="M7.17157 21.5786C7.17157 13.6218 13.6218 7.17157 21.5785 7.17157L1247.76 7.17157C1255.72 7.17157 1262.17 13.6218 1262.17 21.5786L1262.17 88.7646C1262.17 96.7213 1255.72 103.172 1247.76 103.172L21.5785 103.172C13.6218 103.172 7.17157 96.7213 7.17157 88.7646Z" fill="#FF0000" fill-rule="evenodd"/></g></g><path d="M11 24.407C11 16.4502 17.4502 10 25.407 10L1251.59 10C1259.55 10 1266 16.4502 1266 24.407L1266 91.593C1266 99.5498 1259.55 106 1251.59 106L25.407 106C17.4502 106 11 99.5498 11 91.593Z" fill="url(#fill19)" fill-rule="evenodd"/><g filter="url(#fx3)" transform="translate(7 6)"><g><path d="M6.82843 21.2354C6.82843 13.2787 13.2786 6.82843 21.2354 6.82843L1247.42 6.82843C1255.38 6.82843 1261.83 13.2787 1261.83 21.2354L1261.83 88.4214C1261.83 96.3782 1255.38 102.828 1247.42 102.828L21.2354 102.828C13.2786 102.828 6.82843 96.3782 6.82843 88.4214Z" fill="#FF0000" fill-rule="evenodd"/></g></g><path d="M11 24.407C11 16.4502 17.4502 10 25.407 10L1251.59 10C1259.55 10 1266 16.4502 1266 24.407L1266 91.593C1266 99.5498 1259.55 106 1251.59 106L25.407 106C17.4502 106 11 99.5498 11 91.593Z" fill="url(#fill20)" fill-rule="evenodd"/><g filter="url(#fx4)" transform="translate(2 264)"><g><path d="M7.17157 25.6301C7.17157 15.4357 15.4357 7.17157 25.6301 7.17157L217.713 7.17157C227.907 7.17157 236.172 15.4357 236.172 25.6301L236.172 111.713C236.172 121.907 227.907 130.172 217.713 130.172L25.6301 130.172C15.4357 130.172 7.17157 121.907 7.17157 111.713Z" fill="#BFBFBF" fill-rule="evenodd"/></g></g><path d="M12 292.459C12 282.264 20.2641 274 30.4585 274L222.542 274C232.736 274 241 282.264 241 292.459L241 378.541C241 388.736 232.736 397 222.542 397L30.4585 397C20.2641 397 12 388.736 12 378.541Z" fill="#BFBFBF" fill-rule="evenodd"/><g filter="url(#fx5)" transform="translate(8 270)"><g><path d="M6.82843 25.2869C6.82843 15.0926 15.0926 6.82843 25.2869 6.82843L217.37 6.82843C227.564 6.82843 235.828 15.0926 235.828 25.2869L235.828 111.37C235.828 121.564 227.564 129.828 217.37 129.828L25.2869 129.828C15.0926 129.828 6.82843 121.564 6.82843 111.37Z" fill="#FFFFFF" fill-rule="evenodd"/></g></g><path d="M12 292.459C12 282.264 20.2641 274 30.4585 274L222.542 274C232.736 274 241 282.264 241 292.459L241 378.541C241 388.736 232.736 397 222.542 397L30.4585 397C20.2641 397 12 388.736 12 378.541Z" fill="#FFFFFF" fill-rule="evenodd"/><g filter="url(#fx6)" transform="translate(256 407)"><g><path d="M7.17157 30.8237C7.17157 17.761 17.761 7.17157 30.8237 7.17157L623.519 7.17157C636.582 7.17157 647.172 17.761 647.172 30.8237L647.172 261.519C647.172 274.582 636.582 285.172 623.519 285.172L30.8237 285.172C17.761 285.172 7.17157 274.582 7.17157 261.519Z" fill="#BFBFBF" fill-rule="evenodd"/></g></g><path d="M266 440.652C266 427.589 276.589 417 289.652 417L882.348 417C895.411 417 906 427.589 906 440.652L906 671.348C906 684.411 895.411 695 882.348 695L289.652 695C276.589 695 266 684.411 266 671.348Z" fill="#BFBFBF" fill-rule="evenodd"/><g filter="url(#fx7)" transform="translate(262 413)"><g><path d="M6.82843 23.8223C6.82843 14.4369 14.4368 6.82843 23.8223 6.82843L629.835 6.82843C639.22 6.82843 646.828 14.4369 646.828 23.8223L646.828 267.835C646.828 277.22 639.22 284.828 629.835 284.828L23.8223 284.828C14.4368 284.828 6.82843 277.22 6.82843 267.835Z" fill="#FFFFFF" fill-rule="evenodd"/></g></g><path d="M266 433.994C266 424.608 273.608 417 282.994 417L889.006 417C898.392 417 906 424.608 906 433.994L906 678.006C906 687.392 898.392 695 889.006 695L282.994 695C273.608 695 266 687.392 266 678.006Z" fill="#FFFFFF" fill-rule="evenodd"/><g filter="url(#fx8)" transform="translate(769 125)"><g><path d="M7.17157 29.8878C7.17157 17.342 17.342 7.17157 29.8878 7.17157L459.455 7.17157C472.001 7.17157 482.172 17.342 482.172 29.8878L482.172 251.455C482.172 264.001 472.001 274.172 459.455 274.172L29.8878 274.172C17.342 274.172 7.17157 264.001 7.17157 251.455Z" fill="#BFBFBF" fill-rule="evenodd"/></g></g><path d="M779 157.716C779 145.17 789.17 135 801.716 135L1231.28 135C1243.83 135 1254 145.17 1254 157.716L1254 379.284C1254 391.83 1243.83 402 1231.28 402L801.716 402C789.17 402 779 391.83 779 379.284Z" fill="#BFBFBF" fill-rule="evenodd"/><g filter="url(#fx9)" transform="translate(775 131)"><g><path d="M6.82843 23.1501C6.82843 14.1359 14.1359 6.82843 23.1501 6.82843L465.507 6.82843C474.521 6.82843 481.828 14.1359 481.828 23.1501L481.828 257.507C481.828 266.521 474.521 273.828 465.507 273.828L23.1501 273.828C14.1359 273.828 6.82843 266.521 6.82843 257.507Z" fill="#FFFFFF" fill-rule="evenodd"/></g></g><path d="M779 151.322C779 142.307 786.307 135 795.322 135L1237.68 135C1246.69 135 1254 142.307 1254 151.322L1254 385.678C1254 394.693 1246.69 402 1237.68 402L795.322 402C786.307 402 779 394.693 779 385.678Z" fill="#FFFFFF" fill-rule="evenodd"/><g filter="url(#fx10)" transform="translate(256 125)"><g><path d="M7.17157 29.8881C7.17157 17.3421 17.3421 7.17157 29.8881 7.17157L471.455 7.17157C484.001 7.17157 494.172 17.3421 494.172 29.8881L494.172 251.455C494.172 264.001 484.001 274.172 471.455 274.172L29.8881 274.172C17.3421 274.172 7.17157 264.001 7.17157 251.455Z" fill="#BFBFBF" fill-rule="evenodd"/></g></g><path d="M266 157.717C266 145.171 276.171 135 288.717 135L730.283 135C742.829 135 753 145.171 753 157.717L753 379.283C753 391.829 742.829 402 730.283 402L288.717 402C276.171 402 266 391.829 266 379.283Z" fill="#BFBFBF" fill-rule="evenodd"/><g filter="url(#fx11)" transform="translate(262 131)"><g><path d="M6.82843 23.1502C6.82843 14.1359 14.1359 6.82843 23.1502 6.82843L477.507 6.82843C486.521 6.82843 493.828 14.1359 493.828 23.1502L493.828 257.507C493.828 266.521 486.521 273.828 477.507 273.828L23.1502 273.828C14.1359 273.828 6.82843 266.521 6.82843 257.507Z" fill="#FFFFFF" fill-rule="evenodd"/></g></g><path d="M266 151.322C266 142.307 273.307 135 282.322 135L736.678 135C745.692 135 753 142.307 753 151.322L753 385.678C753 394.693 745.692 402 736.678 402L282.322 402C273.307 402 266 394.693 266 385.678Z" fill="#FFFFFF" fill-rule="evenodd"/><g filter="url(#fx12)" transform="translate(927 407)"><g><path d="M7.17157 30.8239C7.17157 17.7611 17.7611 7.17157 30.8238 7.17157L300.519 7.17157C313.582 7.17157 324.172 17.7611 324.172 30.8239L324.172 261.519C324.172 274.582 313.582 285.172 300.519 285.172L30.8238 285.172C17.7611 285.172 7.17157 274.582 7.17157 261.519Z" fill="#BFBFBF" fill-rule="evenodd"/></g></g><path d="M937 440.652C937 427.59 947.589 417 960.652 417L1230.35 417C1243.41 417 1254 427.59 1254 440.652L1254 671.348C1254 684.411 1243.41 695 1230.35 695L960.652 695C947.589 695 937 684.411 937 671.348Z" fill="#BFBFBF" fill-rule="evenodd"/><g filter="url(#fx13)" transform="translate(933 413)"><g><path d="M6.82843 23.8225C6.82843 14.4369 14.4369 6.82843 23.8225 6.82843L306.834 6.82843C316.22 6.82843 323.828 14.4369 323.828 23.8225L323.828 267.834C323.828 277.22 316.22 284.828 306.834 284.828L23.8225 284.828C14.4369 284.828 6.82843 277.22 6.82843 267.834Z" fill="#FFFFFF" fill-rule="evenodd"/></g></g><path d="M937 433.994C937 424.608 944.608 417 953.994 417L1237.01 417C1246.39 417 1254 424.608 1254 433.994L1254 678.006C1254 687.391 1246.39 695 1237.01 695L953.994 695C944.608 695 937 687.391 937 678.006Z" fill="#FFFFFF" fill-rule="evenodd"/><g filter="url(#fx14)" transform="translate(1 412)"><g><path d="M7.17157 25.7803C7.17157 15.503 15.503 7.17157 25.7803 7.17157L217.563 7.17157C227.84 7.17157 236.172 15.503 236.172 25.7803L236.172 112.563C236.172 122.84 227.84 131.172 217.563 131.172L25.7803 131.172C15.503 131.172 7.17157 122.84 7.17157 112.563Z" fill="#BFBFBF" fill-rule="evenodd"/></g></g><path d="M11 440.609C11 430.331 19.3314 422 29.6088 422L221.391 422C231.669 422 240 430.331 240 440.609L240 527.391C240 537.669 231.669 546 221.391 546L29.6088 546C19.3314 546 11 537.669 11 527.391Z" fill="#BFBFBF" fill-rule="evenodd"/><g filter="url(#fx15)" transform="translate(7 418)"><g><path d="M6.82843 25.4372C6.82843 15.1599 15.1599 6.82843 25.4372 6.82843L217.22 6.82843C227.497 6.82843 235.828 15.1599 235.828 25.4372L235.828 112.22C235.828 122.497 227.497 130.828 217.22 130.828L25.4372 130.828C15.1599 130.828 6.82843 122.497 6.82843 112.22Z" fill="#FFFFFF" fill-rule="evenodd"/></g></g><path d="M11 440.609C11 430.331 19.3314 422 29.6088 422L221.391 422C231.669 422 240 430.331 240 440.609L240 527.391C240 537.669 231.669 546 221.391 546L29.6088 546C19.3314 546 11 537.669 11 527.391Z" fill="#FFFFFF" fill-rule="evenodd"/><g filter="url(#fx16)" transform="translate(1 561)"><g><path d="M7.17157 25.7804C7.17157 15.503 15.503 7.17157 25.7803 7.17157L218.563 7.17157C228.84 7.17157 237.172 15.503 237.172 25.7804L237.172 112.563C237.172 122.84 228.84 131.172 218.563 131.172L25.7803 131.172C15.503 131.172 7.17157 122.84 7.17157 112.563Z" fill="#BFBFBF" fill-rule="evenodd"/></g></g><path d="M11 589.609C11 579.331 19.3314 571 29.6088 571L222.391 571C232.669 571 241 579.331 241 589.609L241 676.391C241 686.669 232.669 695 222.391 695L29.6088 695C19.3314 695 11 686.669 11 676.391Z" fill="#BFBFBF" fill-rule="evenodd"/><g filter="url(#fx17)" transform="translate(7 567)"><g><path d="M6.82843 25.4372C6.82843 15.1599 15.1599 6.82843 25.4372 6.82843L218.22 6.82843C228.497 6.82843 236.828 15.1599 236.828 25.4372L236.828 112.22C236.828 122.497 228.497 130.828 218.22 130.828L25.4372 130.828C15.1599 130.828 6.82843 122.497 6.82843 112.22Z" fill="#FFFFFF" fill-rule="evenodd"/></g></g><path d="M11 589.609C11 579.331 19.3314 571 29.6088 571L222.391 571C232.669 571 241 579.331 241 589.609L241 676.391C241 686.669 232.669 695 222.391 695L29.6088 695C19.3314 695 11 686.669 11 676.391Z" fill="#FFFFFF" fill-rule="evenodd"/></g></svg>